<?xml version="1.0" encoding="UTF-8"?>
<svg width="111px" height="53px" viewBox="0 0 111 53" version="1.1" xmlns="http://www.w3.org/2000/svg" xmlns:xlink="http://www.w3.org/1999/xlink">
    <!-- Generator: Sketch 50.2 (55047) - http://www.bohemiancoding.com/sketch -->
    <title>a_icon_unfpa_white</title>
    <desc>Created with Sketch.</desc>
    <defs>
        <polygon id="path-1" points="0.809 0.5151 51.727 0.5151 51.727 52 0.809 52"></polygon>
    </defs>
    <g id="a_icon_unfpa_white" stroke="none" stroke-width="1" fill="none" fill-rule="evenodd">
        <g id="Group-3" transform="translate(59.000000, 0.485400)">
            <mask id="mask-2" fill="white">
                <use xlink:href="#path-1"></use>
            </mask>
            <g id="Clip-2"></g>
            <path d="M47.705,22.1611 L46.305,27.9651 L49.105,27.9651 L47.705,22.1611 Z M36.291,21.0391 L36.291,25.8901 L37.131,25.8901 C37.631,25.8901 38.042,25.8461 38.363,25.7591 C38.69,25.6721 38.962,25.4981 39.181,25.2371 C39.37,25.0051 39.506,24.7281 39.588,24.4091 C39.675,24.0831 39.718,23.6891 39.718,23.2251 C39.718,22.7681 39.631,22.3771 39.457,22.0511 C39.284,21.7171 39.082,21.4861 38.853,21.3561 C38.547,21.1821 38.248,21.0871 37.957,21.0721 C37.666,21.0501 37.28,21.0391 36.795,21.0391 L36.291,21.0391 Z M33.35,18.0181 L38.188,18.0181 C38.912,18.0181 39.522,18.1081 40.017,18.2891 C40.517,18.4631 40.957,18.7301 41.339,19.0851 C41.798,19.5121 42.148,20.0591 42.388,20.7261 C42.633,21.3921 42.754,22.1921 42.754,23.1271 C42.754,23.8521 42.667,24.5621 42.488,25.2571 C42.31,25.9461 42.055,26.5251 41.723,26.9961 C41.269,27.6341 40.761,28.1181 40.2,28.4441 C39.644,28.7701 38.949,28.9331 38.118,28.9331 L36.291,28.9331 L36.291,34.2051 L33.35,34.2051 L33.35,18.0181 Z M24.026,18.0181 L32.191,18.0181 L32.191,21.1501 L26.949,21.1501 L26.949,24.1611 L31.807,24.1611 L31.807,27.2901 L26.949,27.2901 L26.949,34.2051 L24.026,34.2051 L24.026,18.0181 Z M12.09,18.0181 L15.6,18.0181 L19.756,27.2901 L19.756,18.0181 L22.45,18.0181 L22.45,34.2051 L19.618,34.2051 L14.782,23.0941 L14.782,34.2051 L12.09,34.2051 L12.09,18.0181 Z M25.986,0.5151 C14.713,0.5151 5.134,7.7621 1.649,17.8501 L3.16,17.8501 L3.16,27.9501 C3.16,29.0731 3.325,29.9081 3.657,30.4591 C3.988,31.0101 4.528,31.2841 5.273,31.2841 C6.007,31.2841 6.542,31.0201 6.879,30.4911 C7.22,29.9621 7.39,29.1161 7.39,27.9501 L7.39,17.8501 L10.344,17.8501 L10.344,28.1781 C10.344,30.1781 9.916,31.7091 9.059,32.7751 C8.202,33.8401 6.941,34.3731 5.273,34.3731 C3.605,34.3731 2.341,33.8401 1.484,32.7751 C1.218,32.4421 0.992,32.0641 0.809,31.6411 C3.284,43.2721 13.616,52.0001 25.986,52.0001 C37.514,52.0001 47.272,44.4231 50.55,33.9771 L49.815,30.9331 L45.592,30.9331 L44.804,34.2051 L41.844,34.2051 L46.051,18.0181 L49.434,18.0181 L51.722,26.8181 C51.726,26.6321 51.727,26.4451 51.727,26.2581 C51.727,12.0421 40.202,0.5151 25.986,0.5151 Z" id="Fill-1" fill="#FFFFFF" mask="url(#mask-2)"></path>
        </g>
        <path d="M41.0746,18.5818 C40.5296,19.0598 40.1656,19.6758 39.7466,20.2298 C39.3986,20.6898 38.9206,20.9748 38.5096,21.3618 C38.7316,20.9008 38.7726,20.3738 39.0546,19.9278 C39.5356,19.1668 40.3326,18.8708 41.0746,18.5818 Z M38.0926,20.2478 C38.3766,19.9338 38.6946,19.6888 39.0726,19.5918 C38.3376,20.0968 38.3776,20.9998 38.1526,21.7538 C38.0706,22.0298 37.9496,22.2888 37.8856,22.5738 L37.9046,22.5888 C38.0266,22.2668 38.2366,21.9568 38.5096,21.6988 C39.0256,21.2108 39.8026,20.9158 40.0586,20.2028 C40.0466,21.1938 39.2026,21.9468 38.4306,22.5298 C38.0846,22.7918 37.7906,23.1418 37.6116,23.5098 C37.6416,23.2368 37.6546,23.0088 37.6306,22.7418 C37.5516,21.8758 37.4996,20.9058 38.0926,20.2478 Z M36.6066,23.2058 C36.6066,22.3288 36.9486,21.6138 37.4606,20.9608 C37.4756,20.9528 37.4856,20.9378 37.5046,20.9418 C36.9416,21.7988 37.4546,22.8818 37.3816,23.8548 L37.3076,24.8528 C37.3186,24.8598 37.3186,24.8898 37.3446,24.8788 C37.3786,24.7678 37.3886,24.6488 37.4076,24.5338 C37.5436,23.7288 38.2506,23.1688 38.8496,22.6008 C38.9916,22.4668 39.0956,22.3078 39.1616,22.1368 C39.1126,22.5378 39.0006,22.9488 38.8206,23.3128 C38.3586,24.2468 37.4676,25.0008 37.3076,26.0628 C37.2296,25.0448 36.6066,24.2888 36.6066,23.2058 Z M36.1806,24.4518 C36.2436,24.1778 36.2916,23.8938 36.4106,23.6428 C36.1856,24.8018 36.9556,25.6388 37.2196,26.6408 C37.3186,27.0188 37.3526,27.4198 37.5056,27.7728 C37.5196,27.7808 37.5316,27.7658 37.5406,27.7538 C37.1606,26.6868 37.7176,25.7008 38.2606,24.8598 C38.4036,24.6388 38.4726,24.3818 38.5386,24.1218 C38.5976,24.6048 38.4946,25.1638 38.4056,25.6618 C38.2906,26.3038 38.0716,26.9048 37.8966,27.5238 C37.7826,27.9108 37.8126,28.3478 37.8716,28.7528 L37.8156,28.7088 C37.4116,27.9618 36.6136,27.3788 36.3726,26.5638 C36.1806,25.9128 36.0466,25.1608 36.1806,24.4518 Z M36.1436,26.7158 C36.2326,27.9438 37.5406,28.5998 38.1646,29.6098 C38.2976,29.8258 38.4346,30.0478 38.6276,30.2218 C38.5976,30.0918 38.4906,29.9758 38.4306,29.8468 C38.2306,29.4138 38.1406,28.9128 38.1906,28.3968 C38.2506,27.7698 38.5126,27.1868 38.4126,26.5278 C38.9496,27.6878 38.7766,29.1378 39.0866,30.3928 C39.1556,30.6698 39.3246,30.9128 39.4286,31.1758 C38.9006,30.7738 38.2086,30.4168 37.6286,29.9598 C37.0686,29.5188 36.5816,29.0008 36.3286,28.3268 C36.1466,27.8408 36.0996,27.2618 36.1436,26.7158 Z M36.8036,29.5358 C37.4196,30.9308 38.9666,31.0398 39.9956,31.8948 C40.1906,32.0578 40.3846,32.2068 40.5996,32.3078 L40.6106,32.2958 C40.3736,32.0818 40.1166,31.8258 39.9326,31.5588 C39.3446,30.7038 39.5406,29.5358 39.0866,28.6308 C39.4986,29.1238 39.8856,29.6318 40.1226,30.1958 C40.5036,31.1048 40.6336,32.1418 41.4896,32.8318 C40.5636,32.5268 39.4946,32.5868 38.6606,32.0408 C37.7836,31.4668 36.9706,30.5598 36.8036,29.5358 Z M38.3856,32.1368 C39.3736,33.2608 40.9836,32.8998 42.3016,33.1798 C42.4846,33.2188 42.6576,33.2798 42.8536,33.2498 C42.6976,33.1508 42.4896,33.1398 42.3086,33.0708 C41.2866,32.6858 41.1266,31.5918 40.5666,30.8388 C41.2816,31.3138 41.8736,31.9638 42.5426,32.5758 C43.0076,33.0008 43.5876,33.1828 44.1886,33.3058 C44.0436,33.3578 43.8546,33.3458 43.6996,33.3838 C42.6196,33.6518 41.4226,34.0748 40.2736,33.6958 C39.5326,33.4508 38.7606,32.8718 38.3856,32.1368 Z M49.4066,35.2348 C49.2856,35.3728 49.1296,35.5018 48.9816,35.6208 C48.0286,34.6358 46.9106,33.5448 45.8466,33.5448 C45.1876,33.5448 44.7126,34.0468 44.1586,34.4008 C43.3896,34.8918 42.3346,35.1688 41.4316,34.8078 C40.9456,34.6238 40.4746,34.3518 40.1226,33.9098 C40.8336,34.4008 41.8986,34.4668 42.7016,34.1338 C43.5896,33.7658 44.4926,33.2768 45.5046,33.2768 C46.9956,33.2768 48.4126,34.2848 49.4066,35.2348 Z" id="Fill-4" fill="#FFFFFF"></path>
        <path d="M52.1042,18.5818 C52.6492,19.0598 53.0132,19.6758 53.4322,20.2298 C53.7802,20.6898 54.2582,20.9748 54.6692,21.3618 C54.4472,20.9008 54.4062,20.3738 54.1242,19.9278 C53.6432,19.1668 52.8462,18.8708 52.1042,18.5818 Z M55.0862,20.2478 C54.8022,19.9338 54.4842,19.6888 54.1062,19.5918 C54.8412,20.0968 54.8012,20.9998 55.0262,21.7538 C55.1082,22.0298 55.2292,22.2888 55.2932,22.5738 L55.2742,22.5888 C55.1522,22.2668 54.9422,21.9568 54.6692,21.6988 C54.1532,21.2108 53.3762,20.9158 53.1202,20.2028 C53.1322,21.1938 53.9762,21.9468 54.7482,22.5298 C55.0942,22.7918 55.3882,23.1418 55.5672,23.5098 C55.5372,23.2368 55.5242,23.0088 55.5482,22.7418 C55.6272,21.8758 55.6792,20.9058 55.0862,20.2478 Z M56.5722,23.2058 C56.5722,22.3288 56.2302,21.6138 55.7182,20.9608 C55.7032,20.9528 55.6932,20.9378 55.6732,20.9418 C56.2372,21.7988 55.7242,22.8818 55.7972,23.8548 L55.8712,24.8528 C55.8602,24.8598 55.8602,24.8898 55.8342,24.8788 C55.8002,24.7678 55.7902,24.6488 55.7712,24.5338 C55.6352,23.7288 54.9282,23.1688 54.3292,22.6008 C54.1872,22.4668 54.0832,22.3078 54.0172,22.1368 C54.0662,22.5378 54.1782,22.9488 54.3582,23.3128 C54.8202,24.2468 55.7112,25.0008 55.8712,26.0628 C55.9492,25.0448 56.5722,24.2888 56.5722,23.2058 Z M56.9982,24.4518 C56.9352,24.1778 56.8872,23.8938 56.7682,23.6428 C56.9932,24.8018 56.2232,25.6388 55.9592,26.6408 C55.8602,27.0188 55.8262,27.4198 55.6732,27.7728 C55.6592,27.7808 55.6472,27.7658 55.6382,27.7538 C56.0182,26.6868 55.4612,25.7008 54.9182,24.8598 C54.7752,24.6388 54.7062,24.3818 54.6402,24.1218 C54.5812,24.6048 54.6842,25.1638 54.7732,25.6618 C54.8882,26.3038 55.1072,26.9048 55.2822,27.5238 C55.3962,27.9108 55.3662,28.3478 55.3072,28.7528 L55.3632,28.7088 C55.7672,27.9618 56.5652,27.3788 56.8062,26.5638 C56.9982,25.9128 57.1312,25.1608 56.9982,24.4518 Z M57.0352,26.7158 C56.9462,27.9438 55.6382,28.5998 55.0142,29.6098 C54.8812,29.8258 54.7442,30.0478 54.5512,30.2218 C54.5812,30.0918 54.6882,29.9758 54.7482,29.8468 C54.9482,29.4138 55.0382,28.9128 54.9882,28.3968 C54.9282,27.7698 54.6662,27.1868 54.7662,26.5278 C54.2292,27.6878 54.4022,29.1378 54.0922,30.3928 C54.0232,30.6698 53.8542,30.9128 53.7502,31.1758 C54.2782,30.7738 54.9702,30.4168 55.5502,29.9598 C56.1102,29.5188 56.5972,29.0008 56.8502,28.3268 C57.0322,27.8408 57.0792,27.2618 57.0352,26.7158 Z M56.3752,29.5358 C55.7592,30.9308 54.2122,31.0398 53.1832,31.8948 C52.9882,32.0578 52.7942,32.2068 52.5792,32.3078 L52.5682,32.2958 C52.8052,32.0818 53.0622,31.8258 53.2462,31.5588 C53.8342,30.7038 53.6382,29.5358 54.0922,28.6308 C53.6802,29.1238 53.2932,29.6318 53.0562,30.1958 C52.6752,31.1048 52.5452,32.1418 51.6892,32.8318 C52.6152,32.5268 53.6842,32.5868 54.5182,32.0408 C55.3952,31.4668 56.2082,30.5598 56.3752,29.5358 Z M54.7932,32.1368 C53.8052,33.2608 52.1952,32.8998 50.8772,33.1798 C50.6942,33.2188 50.5212,33.2798 50.3252,33.2498 C50.4812,33.1508 50.6892,33.1398 50.8702,33.0708 C51.8922,32.6858 52.0522,31.5918 52.6122,30.8388 C51.8972,31.3138 51.3052,31.9638 50.6362,32.5758 C50.1712,33.0008 49.5912,33.1828 48.9902,33.3058 C49.1352,33.3578 49.3242,33.3458 49.4792,33.3838 C50.5592,33.6518 51.7562,34.0748 52.9052,33.6958 C53.6462,33.4508 54.4182,32.8718 54.7932,32.1368 Z M43.7722,35.2348 C43.8932,35.3728 44.0492,35.5018 44.1972,35.6208 C45.1502,34.6358 46.2682,33.5448 47.3322,33.5448 C47.9912,33.5448 48.4662,34.0468 49.0202,34.4008 C49.7892,34.8918 50.8442,35.1688 51.7472,34.8078 C52.2332,34.6238 52.7042,34.3518 53.0562,33.9098 C52.3452,34.4008 51.2802,34.4668 50.4772,34.1338 C49.5892,33.7658 48.6862,33.2768 47.6742,33.2768 C46.1832,33.2768 44.7662,34.2848 43.7722,35.2348 Z" id="Fill-6" fill="#FFFFFF"></path>
        <path d="M53.2481,28.4866 L53.0871,28.3986 C52.7461,29.1026 52.2941,29.7436 51.7531,30.2976 L50.8121,29.3566 C51.2731,28.8816 51.6451,28.3426 51.9181,27.7606 L51.7581,27.6726 C51.4871,28.2506 51.1231,28.7766 50.6841,29.2286 L49.8321,28.3766 C50.1981,27.9966 50.4881,27.5626 50.6981,27.0936 L50.5391,27.0066 C50.3331,27.4686 50.0501,27.8896 49.7041,28.2496 L48.7631,27.3076 C49.0251,27.0306 49.2271,26.7106 49.3641,26.3656 L49.2051,26.2786 C49.0741,26.6156 48.8801,26.9216 48.6361,27.1806 L47.7811,26.3266 C48.0251,26.0546 48.1661,25.7136 48.1861,25.3496 L49.3961,25.3496 C49.3861,25.6766 49.3191,25.9886 49.2051,26.2786 L49.3641,26.3656 C49.4921,26.0456 49.5641,25.7026 49.5741,25.3496 L50.9081,25.3496 C50.8961,25.9386 50.7641,26.4986 50.5391,27.0066 L50.6981,27.0936 C50.9401,26.5506 51.0741,25.9606 51.0861,25.3496 L52.2941,25.3496 C52.2811,26.1786 52.0901,26.9646 51.7581,27.6726 L51.9181,27.7606 C52.2691,27.0146 52.4591,26.1966 52.4721,25.3496 L53.8061,25.3496 C53.7921,26.4406 53.5351,27.4746 53.0871,28.3986 L53.2481,28.4866 C53.7301,27.4936 53.9861,26.3966 53.9861,25.2606 C53.9861,24.2936 53.8011,23.3566 53.4491,22.4866 L53.2841,22.5576 C53.6151,23.3786 53.7951,24.2606 53.8061,25.1706 L52.4721,25.1706 C52.4611,24.4446 52.3191,23.7406 52.0581,23.0846 L51.8941,23.1546 C52.1451,23.7896 52.2831,24.4696 52.2941,25.1706 L51.0861,25.1706 C51.0761,24.6366 50.9711,24.1176 50.7831,23.6316 L50.6191,23.7026 C50.7981,24.1656 50.8981,24.6606 50.9081,25.1706 L49.5741,25.1706 C49.5651,24.8446 49.5031,24.5276 49.3931,24.2296 L49.2291,24.2996 C49.3301,24.5766 49.3871,24.8696 49.3961,25.1706 L48.1861,25.1706 C48.1661,24.8066 48.0251,24.4656 47.7811,24.1946 L48.6371,23.3386 C48.9011,23.6196 49.1011,23.9456 49.2291,24.2996 L49.3931,24.2296 C49.2561,23.8556 49.0431,23.5096 48.7631,23.2126 L49.7061,22.2696 C50.1081,22.6886 50.4161,23.1746 50.6191,23.7026 L50.7831,23.6316 C50.5711,23.0836 50.2511,22.5786 49.8321,22.1436 L50.6861,21.2896 C51.2151,21.8346 51.6211,22.4676 51.8941,23.1546 L52.0581,23.0846 C51.7761,22.3766 51.3571,21.7256 50.8121,21.1636 L51.7551,20.2206 C52.4221,20.9036 52.9361,21.6966 53.2841,22.5576 L53.4491,22.4866 C53.0821,21.5776 52.5331,20.7436 51.8201,20.0296 C51.1031,19.3136 50.2651,18.7636 49.3531,18.3966 L49.2871,18.5636 C50.1501,18.9116 50.9451,19.4266 51.6291,20.0946 L50.6861,21.0376 C50.1341,20.5026 49.4941,20.0876 48.8001,19.8066 L48.7351,19.9726 C49.4061,20.2446 50.0251,20.6466 50.5601,21.1646 L49.7061,22.0186 C49.2911,21.6196 48.8121,21.3096 48.2931,21.0976 L48.2281,21.2626 C48.7251,21.4666 49.1831,21.7636 49.5801,22.1446 L48.6371,23.0876 C48.3721,22.8376 48.0691,22.6416 47.7411,22.5046 L47.6761,22.6706 C47.9811,22.7986 48.2631,22.9816 48.5111,23.2146 L47.6561,24.0696 C47.3841,23.8256 47.0431,23.6846 46.6791,23.6646 L46.6791,22.4556 C47.0261,22.4656 47.3631,22.5396 47.6761,22.6706 L47.7411,22.5046 C47.4081,22.3656 47.0491,22.2876 46.6791,22.2766 L46.6791,20.9436 C47.2191,20.9536 47.7421,21.0636 48.2281,21.2626 L48.2931,21.0976 C47.7871,20.8896 47.2411,20.7756 46.6781,20.7646 L46.6781,19.5566 C47.3951,19.5676 48.0891,19.7106 48.7351,19.9726 L48.8001,19.8066 C48.1341,19.5366 47.4171,19.3896 46.6781,19.3786 L46.6781,18.0446 C47.5871,18.0556 48.4681,18.2346 49.2871,18.5646 L49.3531,18.3976 C48.4861,18.0486 47.5521,17.8646 46.5891,17.8646 C45.4001,17.8646 44.2771,18.1476 43.2801,18.6486 L43.3621,18.8046 C44.3261,18.3216 45.3921,18.0576 46.5001,18.0446 L46.5001,19.3786 C45.5971,19.3916 44.7431,19.6116 43.9821,19.9896 L44.0631,20.1446 C44.8131,19.7736 45.6411,19.5696 46.5001,19.5566 L46.5001,20.7646 C45.8281,20.7776 45.1931,20.9396 44.6241,21.2166 L44.7051,21.3726 C45.2591,21.1036 45.8681,20.9556 46.5001,20.9426 L46.5001,22.2766 C46.0811,22.2886 45.6841,22.3876 45.3251,22.5566 L45.4071,22.7126 C45.7461,22.5556 46.1171,22.4666 46.5001,22.4546 L46.5001,23.6646 C46.3131,23.6746 46.1341,23.7176 45.9691,23.7876 L46.0501,23.9436 C46.2191,23.8746 46.4021,23.8386 46.5891,23.8386 C46.9691,23.8386 47.3271,23.9866 47.5951,24.2546 C47.8641,24.5236 48.0121,24.8806 48.0121,25.2606 C48.0121,26.0456 47.3741,26.6836 46.5891,26.6836 C46.2091,26.6836 45.8521,26.5356 45.5831,26.2676 C45.3151,25.9986 45.1671,25.6416 45.1671,25.2606 C45.1671,24.8806 45.3151,24.5236 45.5831,24.2546 C45.7191,24.1186 45.8781,24.0146 46.0501,23.9436 L45.9691,23.7876 C45.8051,23.8566 45.6551,23.9526 45.5241,24.0696 L44.6681,23.2136 C44.8891,23.0056 45.1381,22.8376 45.4061,22.7126 L45.3251,22.5566 C45.0361,22.6916 44.7721,22.8716 44.5431,23.0886 L43.5991,22.1446 C43.9301,21.8266 44.3031,21.5676 44.7051,21.3726 L44.6241,21.2166 C44.1991,21.4236 43.8111,21.6956 43.4741,22.0196 L42.6191,21.1646 C43.0511,20.7456 43.5381,20.4046 44.0631,20.1446 L43.9821,19.9896 C43.4321,20.2626 42.9301,20.6176 42.4951,21.0406 L41.5501,20.0956 C42.0911,19.5666 42.7031,19.1346 43.3611,18.8046 L43.2801,18.6486 C41.8401,19.3726 40.6671,20.5516 39.9541,21.9976 L40.1081,22.0816 C40.4411,21.4046 40.8821,20.7766 41.4241,20.2216 L42.3691,21.1666 C41.9291,21.6196 41.5621,22.1426 41.2851,22.7176 L41.4391,22.8006 C41.7031,22.2506 42.0561,21.7406 42.4931,21.2906 L43.3481,22.1456 C43.0031,22.5046 42.7181,22.9206 42.5071,23.3776 L42.6611,23.4606 C42.8601,23.0266 43.1331,22.6246 43.4731,22.2706 L44.4171,23.2146 C44.1751,23.4706 43.9791,23.7686 43.8391,24.0976 L43.9951,24.1816 C44.1241,23.8736 44.3071,23.5886 44.5421,23.3396 L45.3981,24.1956 C45.1631,24.4576 45.0141,24.7976 44.9931,25.1716 L43.7831,25.1716 C43.7931,24.8266 43.8661,24.4926 43.9951,24.1816 L43.8391,24.0976 C43.6981,24.4296 43.6161,24.7916 43.6041,25.1716 L42.2711,25.1716 C42.2831,24.5716 42.4171,23.9916 42.6611,23.4606 L42.5061,23.3776 C42.2531,23.9256 42.1051,24.5326 42.0931,25.1716 L40.8851,25.1716 C40.8971,24.3376 41.0891,23.5326 41.4391,22.8006 L41.2851,22.7176 C40.9261,23.4626 40.7201,24.2936 40.7071,25.1716 L39.3731,25.1716 C39.3861,24.0826 39.6411,23.0326 40.1081,22.0816 L39.9531,21.9976 C39.4671,22.9826 39.1931,24.0906 39.1931,25.2606 C39.1931,25.9776 39.2951,26.6776 39.4901,27.3456 L39.6651,27.3016 C39.4811,26.6756 39.3811,26.0206 39.3731,25.3506 L40.7071,25.3506 C40.7151,25.9086 40.8011,26.4546 40.9591,26.9756 L41.1321,26.9326 C40.9771,26.4256 40.8931,25.8936 40.8851,25.3506 L42.0931,25.3506 C42.1011,25.7926 42.1741,26.2256 42.3061,26.6366 L42.4791,26.5926 C42.3511,26.1956 42.2791,25.7786 42.2711,25.3506 L43.6051,25.3506 C43.6141,25.6666 43.6721,25.9756 43.7761,26.2666 L43.9491,26.2226 C43.8491,25.9456 43.7921,25.6516 43.7831,25.3506 L44.9931,25.3506 C45.0131,25.7146 45.1541,26.0556 45.3971,26.3266 L44.5421,27.1826 C44.2781,26.9016 44.0781,26.5756 43.9491,26.2226 L43.7761,26.2666 C43.9131,26.6506 44.1291,27.0046 44.4161,27.3086 L43.4731,28.2516 C43.0141,27.7746 42.6781,27.2086 42.4791,26.5936 L42.3061,26.6366 C42.5131,27.2826 42.8651,27.8766 43.3471,28.3776 L42.4931,29.2326 C41.8541,28.5736 41.3931,27.7876 41.1321,26.9326 L40.9591,26.9766 C41.2281,27.8626 41.7051,28.6766 42.3671,29.3576 L41.4241,30.3016 C40.5891,29.4456 39.9931,28.4196 39.6651,27.3016 L39.4911,27.3456 C39.8341,28.5226 40.4691,29.6006 41.3591,30.4916 C41.9631,31.0946 42.6521,31.5806 43.4001,31.9386 L43.4881,31.7816 C42.7811,31.4446 42.1261,30.9896 41.5501,30.4266 L42.4931,29.4846 C42.9831,29.9596 43.5421,30.3396 44.1461,30.6156 L44.2341,30.4596 C43.6441,30.1916 43.0981,29.8216 42.6191,29.3586 L43.4731,28.5046 C43.8731,28.8896 44.3331,29.1906 44.8311,29.4026 L44.9191,29.2466 C44.4351,29.0436 43.9881,28.7516 43.5991,28.3786 L44.5431,27.4356 C44.8461,27.7216 45.1981,27.9366 45.5811,28.0736 L45.6701,27.9156 C45.3011,27.7876 44.9601,27.5836 44.6691,27.3096 L45.5241,26.4536 C45.7961,26.6976 46.1371,26.8386 46.5011,26.8586 L46.5011,28.0686 C46.2141,28.0596 45.9351,28.0076 45.6701,27.9156 L45.5811,28.0736 C45.8731,28.1786 46.1831,28.2376 46.5011,28.2466 L46.5011,29.5806 C45.9491,29.5696 45.4141,29.4556 44.9191,29.2476 L44.8311,29.4036 C45.3531,29.6256 45.9181,29.7476 46.5011,29.7586 L46.5011,30.9666 C45.7061,30.9546 44.9391,30.7796 44.2351,30.4606 L44.1471,30.6166 C44.8781,30.9506 45.6751,31.1326 46.5011,31.1446 L46.5011,32.4786 C45.4421,32.4656 44.4191,32.2256 43.4891,31.7826 L43.4001,31.9396 C44.3841,32.4096 45.4681,32.6586 46.5901,32.6586 C47.7681,32.6586 48.9021,32.3836 49.9231,31.8666 L49.8391,31.7036 C48.8871,32.1856 47.8151,32.4646 46.6791,32.4786 L46.6791,31.1446 C47.5791,31.1316 48.4461,30.9156 49.2291,30.5216 L49.1461,30.3606 C48.4021,30.7356 47.5651,30.9526 46.6791,30.9666 L46.6791,29.7586 C47.3551,29.7456 48.0051,29.5836 48.5941,29.2896 L48.5111,29.1296 C47.9571,29.4056 47.3361,29.5666 46.6791,29.5806 L46.6791,28.2466 C47.1091,28.2346 47.5241,28.1306 47.9001,27.9466 L47.8181,27.7866 C47.4721,27.9556 47.0871,28.0556 46.6791,28.0686 L46.6791,26.8586 C47.0431,26.8386 47.3841,26.6976 47.6561,26.4536 L48.5111,27.3086 C48.3061,27.5006 48.0731,27.6626 47.8181,27.7866 L47.9001,27.9466 C48.1671,27.8156 48.4161,27.6446 48.6381,27.4356 L49.5791,28.3776 C49.2651,28.6796 48.9051,28.9326 48.5111,29.1296 L48.5941,29.2896 C48.9981,29.0886 49.3731,28.8256 49.7071,28.5046 L50.5591,29.3566 C50.1441,29.7596 49.6671,30.0986 49.1461,30.3606 L49.2291,30.5216 C49.7591,30.2556 50.2501,29.9086 50.6871,29.4846 L51.6281,30.4256 C51.1031,30.9376 50.4991,31.3686 49.8391,31.7036 L49.9231,31.8666 C50.6151,31.5166 51.2561,31.0566 51.8201,30.4926 C52.4141,29.8986 52.8931,29.2216 53.2491,28.4886 L53.2481,28.4866 Z" id="Fill-8" fill="#FFFFFF"></path>
        <polygon id="Fill-10" fill="#FFFFFF" points="47.0128 23.5483 46.9678 23.5503 46.9698 23.6033 47.0148 23.6013"></polygon>
        <polygon id="Fill-12" fill="#FFFFFF" points="46.903 23.5224 46.963 23.5224 46.963 23.4774 46.903 23.4774"></polygon>
        <polygon id="Fill-14" fill="#FFFFFF" points="46.7952 23.4613 46.8472 23.4693 46.8542 23.4243 46.8012 23.4163"></polygon>
        <polygon id="Fill-15" fill="#FFFFFF" points="46.751 23.446 46.699 23.438 46.705 23.393 46.757 23.401"></polygon>
        <polygon id="Fill-16" fill="#FFFFFF" points="46.321 23.4314 46.381 23.4314 46.381 23.3864 46.321 23.3864"></polygon>
        <polygon id="Fill-17" fill="#FFFFFF" points="46.1911 23.4766 46.2431 23.4836 46.2491 23.4396 46.1971 23.4316"></polygon>
        <polygon id="Fill-18" fill="#FFFFFF" points="46.1964 23.5452 46.1364 23.5302 46.1474 23.4862 46.2074 23.5012"></polygon>
        <polygon id="Fill-19" fill="#FFFFFF" points="46.0896 23.6011 46.0826 23.5561 46.1266 23.5481 46.1336 23.5941"></polygon>
        <polygon id="Fill-20" fill="#FFFFFF" points="40.2101 28.2095 40.2101 28.1715 40.1731 28.1715 40.1731 28.2475 40.2331 28.2475 40.2331 28.3455 40.2781 28.3455 40.2701 28.2325"></polygon>
        <polygon id="Fill-21" fill="#FFFFFF" points="40.7998 28.8304 40.7698 28.8834 40.6878 28.8074 40.6278 28.7244 40.5988 28.6564 40.5458 28.5204 40.6578 28.5724 40.6958 28.6784 40.7478 28.7174"></polygon>
        <polygon id="Fill-22" fill="#FFFFFF" points="42.3143 30.9128 42.3073 30.8448 42.2473 30.7538 42.3373 30.7688 42.4333 30.8518 42.4713 30.9508 42.4183 30.9808 42.3893 30.9358"></polygon>
        <path d="M46.3583,24.0373 L46.2763,24.0373 L46.2613,23.8703 L46.3063,23.8403 L46.3063,23.7573 L46.0453,23.7573 L46.0373,23.6743 L46.0753,23.6513 L46.0153,23.6283 L45.9703,23.6893 L45.9553,23.7573 L45.8813,23.7723 L45.8813,23.8103 L45.8283,23.8103 L45.8283,23.9083 L45.6193,24.0823 L45.2023,24.0673 C45.1723,24.1353 45.0973,24.0603 45.0973,24.0603 C45.0823,24.0143 44.9783,24.0603 44.9783,24.0603 C44.9783,24.1433 44.8363,24.0223 44.8363,24.0223 L44.5753,23.8323 C44.4263,23.6963 44.2023,23.8703 44.1943,23.9083 C44.2023,24.0143 44.0233,23.9313 44.0233,23.9313 C44.0233,23.9313 43.8743,23.8863 43.8513,23.9463 C43.8293,24.0073 43.7323,23.9923 43.7323,23.9923 L43.7173,24.0223 L43.6423,24.0373 L43.6273,24.0823 L43.5383,24.0983 L43.7613,24.0903 C43.8213,24.0823 43.7393,24.2193 43.7023,24.2113 L43.5973,24.2193 L43.5603,24.2573 L43.4633,24.2573 L43.4183,24.3173 L43.2773,24.3103 C43.2773,24.3103 43.1953,24.3783 43.2023,24.4003 C43.2103,24.4233 43.1873,24.4913 43.1653,24.4913 C43.1423,24.4913 43.0983,24.5603 43.1123,24.5823 C43.1273,24.6053 43.0683,24.6813 43.0683,24.6813 L43.0533,24.7563 L43.0083,24.7723 L43.0083,24.9763 L42.9193,25.0373 L42.9193,25.1273 L42.7843,25.2713 L42.7993,25.3923 L42.6873,25.5143 L42.7023,25.6353 L42.6353,25.6573 L42.6203,25.7103 L42.5903,25.8693 L42.6653,25.8773 C42.7023,25.8623 42.6953,25.9763 42.6653,25.9913 C42.6353,26.0063 42.5533,26.0363 42.5983,26.0663 C42.6433,26.0973 42.4783,26.0893 42.4783,26.0443 C42.4783,25.9983 42.3893,25.9603 42.3663,25.9763 C42.3443,25.9913 42.3073,25.9073 42.3073,25.9073 C42.2253,25.8243 41.9713,25.9153 41.9713,25.9153 L41.9343,26.0363 C41.8523,26.0513 41.7993,26.1883 41.7993,26.1883 C41.7323,26.2103 41.6803,26.2943 41.7023,26.3163 C41.7253,26.3393 41.6653,26.3473 41.6653,26.3473 L41.6653,26.5133 L41.6283,26.5663 L41.6353,26.7483 C41.6803,26.7483 41.6733,26.8313 41.6733,26.8313 C41.5983,26.8393 41.6133,26.9373 41.6133,26.9373 L41.4563,26.9903 L41.4263,27.0363 L41.2323,27.0283 L41.1803,27.0813 L41.1283,27.0283 L40.7553,27.0283 L40.7403,26.9903 L40.6653,26.9753 L40.6583,26.8923 L40.5463,26.8993 L40.5233,26.9453 L40.4043,26.9523 C40.4123,27.0283 40.2853,27.1423 40.2703,27.1113 C40.2553,27.0813 40.1733,26.9983 40.2103,26.9833 C40.2473,26.9673 40.3453,26.9523 40.3453,26.9523 L40.3453,26.8993 L40.0683,26.8923 L40.0393,26.9373 L39.9273,26.9453 L39.9273,27.0663 L39.8743,27.0813 C39.8373,27.1043 39.8823,27.1873 39.8823,27.1873 C39.9343,27.2403 39.8743,27.3233 39.8743,27.3233 C39.8303,27.3693 39.9123,27.4523 39.9123,27.4523 C39.9713,27.4673 39.8743,27.5133 39.8743,27.5133 C39.8893,27.5883 39.9343,27.6113 39.9343,27.6113 C39.8893,27.6873 39.9643,27.7253 39.9643,27.7253 L39.9713,27.8533 L40.0243,27.8843 L40.0243,27.9673 L40.0533,28.0203 L40.1733,28.0203 L40.1653,27.8313 C40.0613,27.7093 40.2553,27.6793 40.2623,27.7243 C40.2703,27.7703 40.3523,27.7933 40.3523,27.7933 C40.3673,27.9063 40.4943,27.9743 40.5313,27.8613 C40.5683,27.7473 40.5983,27.8153 40.6213,27.8683 C40.6433,27.9213 40.7853,28.0503 40.7853,28.0503 L40.8973,28.0503 L40.9123,28.1563 C41.0383,28.1493 41.0763,28.1643 41.1283,28.3383 C41.1803,28.5123 41.3223,28.5573 41.3223,28.5573 L41.4263,28.5503 C41.4263,28.4593 41.5313,28.5653 41.5313,28.6113 C41.5313,28.6563 41.7323,28.8303 41.7323,28.8303 L41.9343,28.8753 L42.1203,29.0273 L42.2623,29.0123 L42.3223,29.0123 C42.3593,28.8833 42.5383,29.0193 42.5533,29.0653 C42.5683,29.1103 42.6873,29.1863 42.7023,29.1483 C42.7173,29.1103 42.7993,29.1333 42.8143,29.2473 C42.8293,29.3603 42.8813,29.3383 42.8813,29.3383 L43.3073,29.3303 L43.4563,29.2013 L43.8363,29.1943 C44.0303,29.1863 43.9113,28.9213 43.8743,28.9213 C43.8063,28.8683 43.8963,28.6483 43.8963,28.6483 L43.3513,28.1413 C43.2243,28.1413 43.3363,27.9593 43.3363,27.9593 C43.4333,27.8993 43.3143,27.8003 43.3143,27.8003 C43.3293,27.7093 43.2623,27.6033 43.2623,27.6033 C43.1283,27.5123 43.1653,27.3383 43.1653,27.3383 L43.1653,27.2173 C43.0533,27.1113 43.2103,27.0963 43.2103,27.0963 C43.2623,27.0053 43.1723,26.9373 43.1723,26.9373 L43.1653,26.8393 L43.0453,26.8233 L43.0303,26.4673 L42.7623,26.0813 C42.7103,26.0663 42.7473,25.9753 42.7473,25.9753 C42.8143,25.9373 42.7323,25.8473 42.7323,25.8473 L42.7243,25.6803 L42.8813,25.6653 L42.9183,25.6043 L42.9933,25.6043 L42.9863,25.4073 C43.0233,25.3093 43.1123,25.3623 43.1123,25.3623 L43.2173,25.3703 L43.2773,25.2563 L43.2913,25.1653 L43.2093,25.1583 C43.1203,25.1043 43.1653,24.9083 43.1653,24.9083 C43.3063,24.6963 43.4703,24.8173 43.4703,24.8173 L43.5753,24.8093 C43.7323,24.9153 43.5903,25.1123 43.5903,25.1123 C43.5603,25.1583 43.5753,25.3013 43.5753,25.3013 L43.6123,25.5443 L43.5153,25.6273 C43.4333,25.6723 43.4333,25.7783 43.5233,25.8013 C43.5823,25.8093 43.5603,25.9533 43.4703,25.8543 C43.3363,25.8543 43.5453,25.9753 43.4863,25.9453 C43.6203,26.0133 43.5903,25.8843 43.5903,25.8843 L43.7693,25.7403 C43.8363,25.6873 43.9563,25.8543 43.9563,25.8773 C43.9563,25.9003 44.2543,25.8843 44.2543,25.8843 C44.3363,25.9373 44.3663,26.0743 44.3663,26.0743 C44.4483,25.9683 44.6203,26.0663 44.4933,26.1273 C44.6123,26.2023 44.6123,26.2713 44.6123,26.2713 C44.7093,26.2403 44.7093,26.3163 44.7093,26.3393 C44.7093,26.3613 44.7393,26.2253 44.7393,26.2253 C44.6273,26.1423 44.8883,26.1123 44.8143,26.2633 L44.7693,26.3313 L44.8443,26.3923 L44.8513,26.5663 C45.0153,26.5513 44.9703,26.3463 44.9703,26.3463 L45.0453,26.3313 C45.0453,26.2633 45.0973,26.3013 45.0973,26.3013 C45.0453,26.0433 45.2173,25.9983 45.2173,25.9983 C45.3133,25.9753 45.3213,25.7713 45.3213,25.7713 C45.2543,25.7403 45.2913,25.6353 45.3663,25.7253 C45.4403,25.8163 45.3213,25.5443 45.3213,25.5443 L45.2613,25.4913 L45.1793,25.4833 L45.1723,25.4003 L45.0383,25.4003 L45.0153,25.5063 L44.9633,25.5213 L44.9483,25.4913 L44.9263,25.5743 L44.7913,25.5743 L44.7843,25.4833 L44.8663,25.4603 L44.8963,25.4153 L44.9183,25.2943 L45.0153,25.2943 L45.1423,25.2563 C45.1493,25.1273 45.2173,25.1573 45.2173,25.1573 L45.2613,25.1953 L45.3283,25.2483 L45.3363,25.2943 L45.2913,25.3163 L45.2843,25.3773 L45.3063,25.4603 L45.3663,25.4603 C45.3883,25.3393 45.5453,25.3393 45.5903,25.4153 L45.6343,25.3093 C45.5303,25.2563 45.6323,25.1733 45.6623,25.2103 C45.6923,25.2483 45.7613,25.1123 45.7613,25.1123 C45.7613,25.1123 45.8133,25.1803 45.7613,25.0893 C45.7093,24.9983 45.7983,24.9533 45.7983,24.9533 C45.7843,24.8623 45.8963,24.8773 45.8963,24.8773 L45.9033,24.7563 L45.7983,24.7483 C45.7763,24.8553 45.6873,24.7643 45.7313,24.7413 C45.7763,24.7183 45.8213,24.6733 45.8213,24.6733 L45.8213,24.5973 L45.8663,24.5823 L45.8733,24.5063 L45.9853,24.5063 L46.0823,24.4613 L46.1043,24.4233 L46.2093,24.4153 L46.3583,24.2793 L46.3433,24.2183 C46.2543,24.2183 46.3433,24.1503 46.3433,24.1503 L46.3583,24.0373 Z" id="Fill-23" fill="#FFFFFF"></path>
        <path d="M43.3515,25.5364 L43.2175,25.5214 L43.2245,25.5744 L43.2615,25.5744 C43.3215,25.6804 43.2695,25.9374 43.2695,25.9374 C43.2695,25.9374 43.1795,25.9454 43.1645,25.8994 C43.1505,25.8544 43.1125,25.9984 43.1425,26.0214 C43.1725,26.0434 43.2765,26.0214 43.2845,26.1044 C43.2915,26.1874 43.3515,26.0514 43.3515,26.0514 L43.3515,25.5364 Z" id="Fill-24" fill="#FFFFFF"></path>
        <polygon id="Fill-25" fill="#FFFFFF" points="43.3963 26.3163 43.3443 26.2943 43.3513 26.1803 43.3963 26.1723 43.4033 26.1193 43.2913 26.1953 43.2173 26.1503 43.2173 26.3313 43.3363 26.4903 43.3813 26.3843"></polygon>
        <polygon id="Fill-26" fill="#FFFFFF" points="43.411 26.6571 43.411 26.5811 43.359 26.5891 43.351 26.6501"></polygon>
        <polygon id="Fill-27" fill="#FFFFFF" points="43.3439 27.0207 43.3439 26.9677 43.2809 26.9747 43.2809 27.0277"></polygon>
        <path d="M43.4319,26.7877 C43.4489,26.7877 43.4639,26.7737 43.4639,26.7557 C43.4639,26.7377 43.4489,26.7237 43.4319,26.7237 C43.4149,26.7237 43.3999,26.7377 43.3999,26.7557 C43.3999,26.7737 43.4149,26.7877 43.4319,26.7877" id="Fill-28" fill="#FFFFFF"></path>
        <path d="M43.4838,26.8826 C43.5008,26.8826 43.5158,26.8966 43.5158,26.9146 C43.5158,26.9326 43.5008,26.9466 43.4838,26.9466 C43.4668,26.9466 43.4518,26.9326 43.4518,26.9146 C43.4518,26.8966 43.4668,26.8826 43.4838,26.8826" id="Fill-29" fill="#FFFFFF"></path>
        <path d="M43.4856,26.0176 C43.5026,26.0176 43.5176,26.0316 43.5176,26.0496 C43.5176,26.0676 43.5026,26.0816 43.4856,26.0816 C43.4686,26.0816 43.4536,26.0676 43.4536,26.0496 C43.4536,26.0316 43.4686,26.0176 43.4856,26.0176" id="Fill-30" fill="#FFFFFF"></path>
        <polygon id="Fill-31" fill="#FFFFFF" points="45.8883 25.135 45.8283 25.15 45.6943 25.279 45.6873 25.339 45.6493 25.393 45.6053 25.506 45.4483 25.514 45.4183 25.65 45.4403 25.763 45.5743 25.817 45.5893 25.741 45.6343 25.718 45.6423 25.642 45.6713 25.589 45.7163 25.536 45.7313 25.476 45.8063 25.43 45.8953 25.415 45.9333 25.37 45.9483 25.279 45.9533 25.211 45.9853 25.165 46.0743 25.128 46.0743 24.984 46.0303 24.984 46.0223 24.931 45.9403 24.923 45.9253 24.961 45.8883 24.961 45.8803 25.022 45.9253 25.022 45.9333 25.067 45.9033 25.097"></polygon>
        <path d="M46.2312,25.4457 L46.2312,25.3397 L46.2162,25.2417 L46.1042,25.1887 L46.0222,25.2637 L46.0072,25.3697 L46.0072,25.4377 L45.9332,25.4537 L45.9182,25.6577 L45.8582,25.6807 L45.8652,25.7567 L45.7832,25.7787 L45.7012,25.8017 L45.6862,25.8997 L45.6272,25.9377 L45.5972,26.0287 L45.5602,26.2487 C45.5602,26.2487 45.6272,26.3767 45.6642,26.3167 C45.7012,26.2557 45.7612,26.2487 45.7612,26.2487 L45.7832,26.1957 L45.9852,26.2027 C46.0002,26.1197 46.0972,26.1497 46.0972,26.1877 C46.0972,26.2257 46.1712,26.1957 46.1712,26.1957 L46.2242,26.1117 L46.3062,26.1117 L46.3132,26.0217 L46.3502,25.9987 L46.3502,25.8617 C46.4702,25.8247 46.4552,25.7107 46.4552,25.7107 L46.4852,25.6727 L46.4702,25.6197 C46.4102,25.5967 46.4402,25.5437 46.4772,25.5597 C46.5152,25.5747 46.4252,25.4907 46.4252,25.4907 C46.3802,25.5287 46.3432,25.4457 46.3432,25.4457 L46.2312,25.4457 Z" id="Fill-32" fill="#FFFFFF"></path>
        <path d="M46.3506,26.3618 C46.3436,26.4528 46.2316,26.4828 46.2316,26.4828 L46.1496,26.4598 L46.1046,26.4228 L46.0966,26.3168 L46.1636,26.3088 L46.1786,26.3538 L46.3506,26.3618 Z" id="Fill-33" fill="#FFFFFF"></path>
        <path d="M46.7537,25.8775 C46.7697,25.9435 46.7687,25.7715 46.7987,25.7795 C46.8277,25.7865 46.8057,25.6735 46.8057,25.6735 L46.6717,25.7715 C46.7387,25.7795 46.7457,25.8475 46.7537,25.8775 Z" id="Fill-34" fill="#FFFFFF"></path>
        <path d="M47.1491,25.4834 C47.1791,25.5514 47.1711,25.6504 47.2831,25.7254 C47.3211,25.7514 47.2611,25.8014 47.2231,25.7784 C47.1861,25.7564 47.0821,25.5894 47.0821,25.5894 L47.0821,25.4914 C47.1041,25.4304 47.1361,25.4544 47.1491,25.4834 Z" id="Fill-35" fill="#FFFFFF"></path>
        <polygon id="Fill-36" fill="#FFFFFF" points="47.2013 27.7473 47.1493 27.7853 47.1713 27.8083 47.1933 27.8453 47.2463 27.7623"></polygon>
        <path d="M46.9624,27.6643 L46.9624,27.7553" id="Fill-37" fill="#FFFFFF"></path>
        <polygon id="Fill-38" fill="#FFFFFF" points="48.0414 27.5546 48.1014 27.5166 48.0774 27.4786 48.0174 27.5156"></polygon>
        <path d="M50.2007,29.1333 L50.2677,29.1633 L50.2757,29.2923 C50.3647,29.3833 50.6557,29.3073 50.6557,29.2843 C50.6557,29.2623 50.6407,29.0043 50.6407,29.0043 L50.6037,28.9663 L50.5957,28.7773 C50.6257,28.6783 50.4547,28.5353 50.4397,28.5653 C50.4247,28.5953 50.3277,28.5723 50.3277,28.6033 C50.3277,28.6333 50.2677,28.7843 50.2977,28.8383 C50.3277,28.8913 50.2757,28.8913 50.2677,28.9443 C50.2607,28.9973 50.1857,29.0883 50.2007,29.1333 Z" id="Fill-39" fill="#FFFFFF"></path>
        <path d="M50.0365,28.8304 C50.0225,28.8874 49.9695,28.9214 49.9395,28.8984 C49.9095,28.8754 49.9765,28.9364 49.9915,28.9664 C50.0065,28.9974 50.0515,28.9974 50.0665,28.9664 C50.0815,28.9364 50.0735,28.8684 50.0885,28.8384 C50.1035,28.8074 50.0445,28.8004 50.0365,28.8304 Z" id="Fill-40" fill="#FFFFFF"></path>
        <polygon id="Fill-41" fill="#FFFFFF" points="49.69 27.5854 49.742 27.5854 49.742 27.4414 49.69 27.4414"></polygon>
        <path d="M50.462,25.9834 C50.429,25.9394 50.611,25.8624 50.641,25.9534 C50.671,26.0434 50.641,26.0284 50.611,26.0214 C50.581,26.0134 50.507,26.0444 50.462,25.9834 Z" id="Fill-42" fill="#FFFFFF"></path>
        <polygon id="Fill-43" fill="#FFFFFF" points="50.6224 24.9691 50.6144 25.0141 50.6964 25.0291 50.7044 24.9841"></polygon>
        <polygon id="Fill-44" fill="#FFFFFF" points="50.4357 25.0347 50.4137 25.0467 50.3577 25.0787 50.3097 25.0477 50.2857 25.0857 50.3457 25.1237 50.3567 25.1307 50.3677 25.1247 50.4127 25.0997 50.4187 25.1137 50.4607 25.0967 50.4447 25.0587"></polygon>
        <path d="M50.6931,23.2572 L50.5811,23.2572 C50.5811,23.2572 50.6181,23.2722 50.5141,23.1742 C50.4091,23.0752 50.3421,23.1962 50.3421,23.1962 L50.2231,23.2122 L50.2231,23.3332 L50.1631,23.3552 L50.1711,23.4312 L50.2531,23.4242 C50.2531,23.4242 50.2531,23.5142 50.2751,23.4772 C50.2981,23.4392 50.4841,23.4842 50.4691,23.5752 C50.4631,23.6122 50.6561,23.7112 50.6331,23.8322 C50.7301,23.8482 50.7081,23.9462 50.7081,23.9462 L50.8351,23.9612 L50.8721,23.8852 L50.9091,23.8932 L50.9091,23.8482 L50.8271,23.8252 L50.8121,23.5832 L50.7601,23.5452 L50.7751,23.4842 L50.7151,23.4612 L50.7451,23.3632 L50.6931,23.2572 Z" id="Fill-45" fill="#FFFFFF"></path>
        <path d="M51.0212,24.0297 L50.9612,24.0227 L50.8272,24.0447 L50.7522,24.1887 C50.7522,24.1887 50.7902,24.2117 50.8192,24.2647 C50.8492,24.3177 50.8642,24.6277 50.7752,24.6807 C50.6852,24.7337 50.7822,24.7037 50.7822,24.7037 L50.7672,24.8707 C50.7902,24.9457 50.8272,24.9077 50.8492,24.8707 C50.8722,24.8327 50.8942,24.8247 50.9242,24.7867 C50.9542,24.7487 50.9992,24.6807 51.0062,24.6277 C51.0132,24.5747 51.0512,24.4917 51.0282,24.4687 C51.0062,24.4467 51.0512,24.3407 51.0512,24.3407 C51.0512,24.3407 51.0812,24.2797 51.0512,24.2187 C51.0212,24.1587 51.0582,24.0907 51.0812,24.0597 L51.0212,24.0297 Z" id="Fill-46" fill="#FFFFFF"></path>
        <polygon id="Fill-47" fill="#FFFFFF" points="51.1115 24.3386 51.1195 24.2776 51.1635 24.2836 51.1555 24.3446"></polygon>
        <polygon id="Fill-48" fill="#FFFFFF" points="51.1087 24.5478 51.0687 24.5278 51.0907 24.4818 51.1307 24.5028"></polygon>
        <path d="M51.0437,23.9466 L51.0137,23.8786 C51.0137,23.8786 51.0137,23.8176 51.0287,23.7876 C51.0437,23.7576 50.9987,23.7266 50.9767,23.7196 C50.9537,23.7116 50.9617,23.6516 50.9537,23.6206 C50.9467,23.5906 50.8947,23.5676 50.8947,23.5676 C50.8947,23.5676 50.8797,23.4546 50.8797,23.4316 C50.8797,23.4086 50.8127,23.3786 50.8347,23.3556 C50.8577,23.3336 50.8717,23.3026 50.8947,23.2876 C50.9167,23.2726 50.8717,23.1666 50.9097,23.1896 C50.9467,23.2116 50.9467,23.2496 50.9617,23.2806 C50.9767,23.3106 50.9537,23.4166 50.9917,23.4396 C51.0287,23.4616 50.9837,23.5376 51.0437,23.5376 C51.1037,23.5376 51.0657,23.6816 51.0657,23.6816 C51.0657,23.6816 51.0507,23.7876 51.0887,23.7956 C51.1257,23.8026 51.1037,23.9846 51.1037,23.9846 L51.0437,23.9466 Z" id="Fill-49" fill="#FFFFFF"></path>
        <path d="M50.5589,22.7195 C50.5809,22.7495 50.6259,22.7725 50.6259,22.8025 C50.6259,22.8335 50.6109,22.8555 50.6559,22.8635 C50.7009,22.8705 50.7309,22.8555 50.7459,22.8935 C50.7599,22.9315 50.7599,22.9925 50.7529,23.0225 C50.7459,23.0525 50.7599,23.0985 50.7979,23.0985 C50.8349,23.0985 50.8419,23.1055 50.8419,23.1285 C50.8419,23.1515 50.8869,23.0455 50.8869,23.0455 C50.8499,23.0145 50.8199,22.9465 50.8199,22.9465 C50.8199,22.9465 50.7829,22.8405 50.7829,22.8255 C50.7829,22.8105 50.7309,22.7955 50.7079,22.7875 C50.6859,22.7805 50.6479,22.7115 50.6479,22.7115 L50.5589,22.7195 Z" id="Fill-50" fill="#FFFFFF"></path>
        <path d="M50.6334,22.6517 C50.6114,22.6217 50.5884,22.5987 50.5584,22.5837 C50.5294,22.5687 50.5064,22.5537 50.4764,22.5537 C50.4464,22.5537 50.4174,22.5227 50.4314,22.4847 C50.4464,22.4477 50.4094,22.4317 50.4094,22.4017 C50.4094,22.3717 50.4314,22.3717 50.4694,22.3947 C50.5064,22.4167 50.4994,22.4247 50.5294,22.4627 C50.5584,22.5007 50.5734,22.5377 50.6034,22.5307 C50.6334,22.5227 50.6554,22.5987 50.6854,22.5757 C50.7154,22.5537 50.7084,22.6287 50.7084,22.6287 L50.6334,22.6517 Z" id="Fill-51" fill="#FFFFFF"></path>
        <path d="M49.7604,23.5072 C49.8014,23.5492 49.5364,23.5372 49.5364,23.5072 C49.5364,23.4772 49.5594,23.3712 49.6264,23.3932 C49.6934,23.4162 49.7004,23.2572 49.7004,23.2572 C49.7004,23.2572 49.6414,23.2652 49.6934,23.2342 C49.7454,23.2042 49.6934,23.1592 49.6704,23.1362 C49.6484,23.1132 49.6264,23.0752 49.6264,23.0752 L49.7304,23.0752 C49.7754,23.0452 49.7904,22.9012 49.7904,22.9012 C49.8794,22.9312 49.9244,22.8712 49.9244,22.8712 C49.9244,22.8712 49.9394,22.9162 49.9694,22.9542 C49.9994,22.9922 49.8944,23.0072 49.9324,23.0302 C49.9694,23.0532 49.9844,23.1212 49.9694,23.1432 C49.9544,23.1662 49.8724,23.1512 49.8724,23.1212 C49.8724,23.0902 49.8424,23.1592 49.8724,23.1972 C49.9024,23.2342 49.8354,23.2872 49.8204,23.2872 C49.8054,23.2872 49.7084,23.3032 49.7904,23.3482 C49.8724,23.3932 49.9624,23.3712 49.9624,23.3712 C49.9624,23.3712 50.0294,23.3632 50.0514,23.4012 C50.0734,23.4392 50.0444,23.4462 50.0064,23.4462 C49.9694,23.4462 49.7904,23.4312 49.7904,23.4312 C49.7904,23.4312 49.7384,23.4842 49.7604,23.5072 Z" id="Fill-52" fill="#FFFFFF"></path>
        <path d="M49.2829,23.5754 C49.3199,23.5674 49.4099,23.5604 49.4249,23.5834 C49.4399,23.6054 49.3729,23.6354 49.3729,23.6354 L49.2829,23.6514 C49.2529,23.6134 49.2459,23.5834 49.2829,23.5754 Z" id="Fill-53" fill="#FFFFFF"></path>
        <path d="M50.2456,22.9394 C50.3056,22.9094 50.4316,22.9094 50.4246,22.8634 C50.4176,22.8184 50.4996,22.8034 50.4996,22.8034 L50.5216,22.8944 L50.5886,22.9394 L50.5966,23.0224 C50.5966,23.0224 50.6186,23.0074 50.5366,23.0304 C50.4546,23.0534 50.5066,23.0904 50.5066,23.0904 L50.3276,23.0984 L50.3056,23.0224 L50.2456,22.9394 Z" id="Fill-54" fill="#FFFFFF"></path>
        <path d="M49.9543,22.5305 C49.9993,22.5305 49.9393,22.7045 50.0583,22.6895 C50.1783,22.6745 50.0663,22.7425 50.1553,22.7505 C50.2453,22.7575 50.2233,22.6815 50.2523,22.6285 C50.2823,22.5755 50.2673,22.5455 50.2153,22.5305 C50.1633,22.5155 50.1633,22.5155 50.1483,22.4545 C50.1333,22.3945 50.0733,22.3785 50.0733,22.3785 L50.0513,22.2885 L49.9543,22.3485 L49.8573,22.4775 C49.8573,22.5755 49.9093,22.5305 49.9543,22.5305 Z" id="Fill-55" fill="#FFFFFF"></path>
        <polygon id="Fill-56" fill="#FFFFFF" points="50.1518 23.1704 50.1738 23.1254 50.2148 23.1454 50.1918 23.1904"></polygon>
        <polygon id="Fill-57" fill="#FFFFFF" points="50.074 23.1514 50.119 23.1514 50.119 23.0984 50.074 23.0984"></polygon>
        <polygon id="Fill-58" fill="#FFFFFF" points="50.1114 22.0894 50.1194 22.1574 50.0744 22.1624 50.0674 22.0944"></polygon>
        <polygon id="Fill-59" fill="#FFFFFF" points="49.984 22.8334 50.029 22.8334 50.029 22.7954 49.984 22.7954"></polygon>
        <polygon id="Fill-60" fill="#FFFFFF" points="49.8669 22.7946 49.8629 22.7496 49.9369 22.7416 49.9419 22.7876"></polygon>
        <polygon id="Fill-61" fill="#FFFFFF" points="49.2514 23.5228 49.2104 23.5048 49.2324 23.4518 49.2734 23.4698"></polygon>
        <polygon id="Fill-62" fill="#FFFFFF" points="49.0172 23.385 49.0132 23.34 49.0872 23.332 49.0922 23.378"></polygon>
        <polygon id="Fill-63" fill="#FFFFFF" points="47.7224 23.371 47.5584 23.378 47.5604 23.424 47.7244 23.416"></polygon>
        <polygon id="Fill-64" fill="#FFFFFF" points="47.4487 23.4367 47.4337 23.3687 47.4777 23.3587 47.4927 23.4267"></polygon>
        <polygon id="Fill-65" fill="#FFFFFF" points="47.4173 23.4837 47.4033 23.4407 47.4253 23.4327 47.4393 23.4757"></polygon>
        <path d="M47.7905,23.3559 L47.7835,23.4089 L47.8655,23.4169 C47.8655,23.4169 47.9025,23.4469 47.9025,23.4699 C47.9025,23.4919 47.9545,23.5149 47.9845,23.5149 C48.0145,23.5149 48.0965,23.4539 48.0965,23.4539 C48.0965,23.4539 48.1335,23.3479 48.1035,23.3559 C48.0735,23.3629 48.0145,23.4089 48.0065,23.3629 C47.9995,23.3179 47.9095,23.3409 47.9095,23.3409 L47.7905,23.3559 Z" id="Fill-66" fill="#FFFFFF"></path>
        <path d="M48.1635,23.2725 C48.1635,23.2955 48.1485,23.3255 48.1935,23.3335 C48.2385,23.3405 48.3205,23.3025 48.3275,23.3485 C48.3355,23.3935 48.3355,23.4245 48.3945,23.4465 C48.4545,23.4695 48.4915,23.4775 48.5365,23.4775 C48.5815,23.4775 48.6785,23.4615 48.6785,23.4615 C48.6785,23.4615 48.7845,23.4785 48.8055,23.4995 C48.8875,23.5825 48.9395,23.6055 48.9615,23.5675 C48.9845,23.5295 48.9545,23.4465 48.9475,23.4165 C48.9395,23.3865 48.8355,23.2425 48.7975,23.2725 C48.7605,23.3025 48.7535,23.2725 48.6855,23.2955 C48.6185,23.3175 48.4765,23.3025 48.4695,23.2725 C48.4625,23.2425 48.3575,23.2275 48.3575,23.1965 C48.3575,23.1665 48.2835,23.1285 48.2905,23.1745 C48.2975,23.2195 48.2385,23.2425 48.2235,23.2275 C48.2085,23.2115 48.1635,23.2725 48.1635,23.2725 Z" id="Fill-67" fill="#FFFFFF"></path>
        <path d="M49.8798,22.303 L49.9318,22.137 C49.8578,22.121 49.8728,22.038 49.8728,22.038 C49.8648,21.97 49.7608,21.894 49.7228,21.917 C49.6858,21.94 49.7008,21.758 49.7008,21.758 C49.7008,21.758 49.7678,21.712 49.7978,21.735 C49.8278,21.758 49.5438,21.357 49.4848,21.394 C49.4248,21.432 49.2908,21.357 49.2978,21.288 C49.3058,21.22 49.0298,20.993 49.0298,20.993 C49.0298,20.993 48.9398,20.933 48.9248,20.978 C48.9098,21.023 48.8798,21.054 48.9248,21.076 C48.9698,21.099 48.9618,21.039 49.0148,21.091 C49.0668,21.144 49.1638,21.213 49.1268,21.258 C49.0888,21.304 49.0438,21.319 49.0438,21.319 L49.0968,21.379 L49.1788,21.379 L49.1938,21.508 C49.1938,21.508 49.2828,21.553 49.3058,21.606 C49.3278,21.659 49.3278,21.69 49.3058,21.72 C49.2828,21.75 49.2388,21.803 49.2458,21.856 C49.2528,21.909 49.3128,21.932 49.3128,21.932 L49.3728,21.94 L49.4178,21.962 L49.4178,22.061 C49.4768,22.046 49.5738,22.129 49.5668,22.182 C49.5588,22.235 49.5818,22.205 49.6558,22.258 C49.7308,22.311 49.7088,22.318 49.7608,22.356 C49.8128,22.394 49.8578,22.371 49.8798,22.303 Z" id="Fill-68" fill="#FFFFFF"></path>
        <path d="M48.6487,21.2733 C48.6417,21.2433 48.6267,21.1373 48.6707,21.1443 C48.7157,21.1523 48.6857,21.1443 48.7387,21.1673 C48.7907,21.1903 48.7977,21.1293 48.7977,21.1293 L48.8797,21.1293 L48.9847,21.2123 L48.9697,21.2813 L48.8947,21.2883 C48.8577,21.2283 48.7827,21.2503 48.7977,21.3033 C48.8127,21.3563 48.7607,21.4553 48.7307,21.4623 C48.7007,21.4703 48.6037,21.4703 48.6117,21.4243 C48.6187,21.3793 48.6487,21.2733 48.6487,21.2733 Z" id="Fill-69" fill="#FFFFFF"></path>
        <path d="M48.589,21.0687 L48.589,21.0077 C48.589,21.0077 48.581,20.9477 48.544,20.9477 C48.507,20.9477 48.44,20.9027 48.455,20.8717 C48.47,20.8417 48.328,20.8117 48.328,20.8117 C48.328,20.8117 48.201,20.6897 48.246,20.7057 C48.291,20.7207 48.268,20.6527 48.268,20.6527 C48.268,20.6527 48.179,20.6677 48.156,20.6597 C48.134,20.6527 48.141,20.5837 48.141,20.5837 C48.141,20.5837 48.052,20.5617 48.052,20.5837 C48.052,20.6067 48.082,20.6067 48.096,20.6527 C48.111,20.6977 48.104,20.7737 48.171,20.7887 C48.238,20.8037 48.253,20.8187 48.261,20.8487 C48.268,20.8797 48.35,20.8867 48.35,20.8867 L48.41,20.9177 L48.589,21.0687 Z" id="Fill-70" fill="#FFFFFF"></path>
        <polygon id="Fill-71" fill="#FFFFFF" points="47.7833 20.2965 47.7613 20.2355 47.7013 20.2205 47.7013 20.2885"></polygon>
        <path d="M47.7609,19.9785 C47.6829,19.9195 47.8649,20.0235 47.8649,20.0235 C47.9249,20.0235 47.9619,20.0695 47.9619,20.0925 C47.9619,20.1145 48.0439,20.1075 48.0439,20.1075 L48.0519,20.0545 L47.9919,19.9785 L47.9399,19.9405 C47.9399,19.9405 47.8579,19.9335 47.8579,19.9105 C47.8579,19.8875 47.7909,20.0015 47.7609,19.9785 Z" id="Fill-72" fill="#FFFFFF"></path>
        <path d="M49.1334,20.0238 C49.1114,20.0898 49.1034,20.1828 49.0664,20.1828 C49.0294,20.1828 49.0434,20.2818 49.0434,20.2818 C49.0434,20.2818 49.1414,20.2818 49.1704,20.2888 C49.2004,20.2968 49.2004,20.3718 49.2004,20.3718 C49.3124,20.3648 49.3574,20.5158 49.3424,20.5538 C49.3274,20.5918 49.3874,20.5918 49.3874,20.5918 C49.3874,20.5918 49.3874,20.7128 49.3724,20.7428 C49.3574,20.7738 49.4694,20.7958 49.4994,20.8418 C49.5284,20.8868 49.4844,21.0388 49.4614,21.0458 C49.4394,21.0538 49.5214,21.0768 49.5134,21.1138 C49.5064,21.1518 49.5364,21.1138 49.5434,21.1748 C49.5514,21.2358 49.5664,21.3638 49.5664,21.3638 L49.6704,21.3718 C49.6854,21.2728 49.8774,21.2698 49.9094,21.2808 C50.0364,21.3258 50.1334,21.5228 50.1334,21.5688 C50.1334,21.6138 50.0514,21.6218 50.0514,21.6218 L50.0664,21.8408 C50.1924,21.8788 50.2974,22.0608 50.2824,22.0908 C50.2674,22.1218 50.3714,22.1138 50.3714,22.1138 C50.3864,21.9778 50.5134,22.0228 50.5214,22.0688 C50.5284,22.1138 50.5514,22.2118 50.5514,22.2118 L50.5884,22.2808 L50.6404,22.3338 L50.7224,22.3258 L50.7454,22.3708 L50.8424,22.3868 C50.8424,22.3868 50.9244,22.4768 50.9314,22.4998 C50.9394,22.5228 51.0514,22.5148 51.0804,22.5228 C51.1104,22.5298 51.1554,22.5528 51.1624,22.5908 C51.1704,22.6288 51.2154,22.6888 51.2154,22.6888 C51.2154,22.6888 51.3044,22.7118 51.3124,22.7418 C51.3194,22.7728 51.3564,22.8408 51.3564,22.8408 L51.4314,22.9018 L51.4384,22.9698 L51.5204,22.9768 L51.5434,23.0678 L51.6774,23.0608 L51.7524,23.0078 C51.8494,22.9548 51.9164,22.8858 51.9234,22.8558 C51.9314,22.8258 51.9464,22.7118 52.0204,22.7348 C52.0954,22.7578 52.0434,22.5678 52.0434,22.5678 C52.0434,22.5678 51.9384,22.4928 51.9464,22.4548 C51.9534,22.4168 51.8414,22.3408 51.8494,22.3108 C51.8564,22.2808 51.7524,22.2198 51.7594,22.1898 C51.7674,22.1588 51.7074,22.0758 51.7074,22.0758 L51.5954,21.9698 L51.5804,21.9018 L51.4914,21.8938 L51.3124,21.6748 L51.3194,21.6138 L51.2674,21.6068 L51.2674,21.5228 L51.2154,21.4928 L51.1334,21.4848 L50.9684,21.3038 L50.9544,21.2198 L50.8714,21.2198 L50.8864,21.0608 C50.9394,20.9928 50.9094,20.8648 50.9094,20.8648 C50.9094,20.8648 50.8044,20.9178 50.7524,20.8948 C50.7004,20.8718 50.7744,20.8188 50.7744,20.8188 L50.7744,20.7588 L50.7304,20.7128 C50.7304,20.7128 50.6034,20.7278 50.5954,20.7058 C50.5884,20.6828 50.5664,20.5838 50.5664,20.5838 L50.5584,20.4558 L50.5064,20.4328 L50.4984,20.3878 L50.4164,20.3948 L50.4164,20.3038 L50.3724,20.2888 L50.3274,20.2658 L50.3194,20.1748 L50.1554,20.1678 L50.1034,20.0918 L50.0434,20.0008 L49.8574,19.9858 L49.8124,19.9408 L49.7374,19.9258 L49.6854,19.9028 L49.6634,19.9408 L49.5214,19.9478 L49.5144,19.9938 C49.4394,20.0318 49.1414,20.0008 49.1334,20.0238 Z" id="Fill-73" fill="#FFFFFF"></path>
        <path d="M49.9171,19.8272 C49.9051,19.7672 50.0661,19.7132 50.1041,19.7592 C50.1411,19.8042 50.2451,19.8122 50.2601,20.0392 C50.2661,20.1202 50.1261,19.9562 50.1261,19.9562 L50.0141,19.9182 C49.9541,19.9032 49.9241,19.8652 49.9171,19.8272 Z" id="Fill-74" fill="#FFFFFF"></path>
        <polygon id="Fill-75" fill="#FFFFFF" points="47.7287 19.9197 47.6877 19.9017 47.7177 19.8327 47.7587 19.8517"></polygon>
        <path d="M47.343,19.1759 L47.246,19.0779 L47.246,18.9939 L47.216,18.9639 L47.186,18.8579 L47.089,18.8279 L46.992,18.8649 L46.888,18.9339 L46.776,18.9489 L46.716,19.0169 L46.955,19.0399 L47,19.1149 L47.171,19.1309 L47.283,19.2439 C47.38,19.2739 47.403,19.2289 47.343,19.1759" id="Fill-76" fill="#FFFFFF"></path>
        <path d="M47.3282,18.8048 C47.3122,18.7378 47.2162,18.8878 47.3132,18.9178 C47.4102,18.9488 47.5072,18.9178 47.5072,18.9178 L47.5292,18.8728 L47.9022,18.8808 C47.9322,18.8498 47.9472,18.8048 47.9472,18.8048 C47.9472,18.8048 48.0372,18.7748 48.0742,18.7898 C48.1112,18.8048 48.0822,18.6838 48.0442,18.6988 C48.0072,18.7138 47.9322,18.7068 47.9322,18.7068 L47.7982,18.7068 C47.7912,18.6538 47.6712,18.6758 47.6642,18.7068 C47.6562,18.7368 47.6122,18.7438 47.6122,18.7438 L47.4402,18.7598 C47.4252,18.8048 47.3362,18.8348 47.3282,18.8048 Z" id="Fill-77" fill="#FFFFFF"></path>
        <path d="M46.5894,20.0826 C46.7044,20.1186 46.7464,20.0916 46.7534,20.0616 C46.7614,20.0316 46.7684,20.0236 46.8134,20.0166 C46.8584,20.0086 46.8054,19.9176 46.7614,19.9256 C46.7164,19.9326 46.6714,19.9106 46.6644,19.8726 C46.6564,19.8346 46.5814,19.7366 46.5744,19.8116 C46.5674,19.8876 46.5224,19.8876 46.5294,19.9406 C46.5374,19.9936 46.5594,20.0726 46.5894,20.0826 Z" id="Fill-78" fill="#FFFFFF"></path>
        <path d="M45.7317,20.1679 C45.7267,20.1409 45.8807,20.1379 45.9037,20.1599 C45.9257,20.1829 45.9107,20.2209 45.9777,20.2209 C46.0447,20.2209 46.0147,20.2659 46.0077,20.2889 C46.0007,20.3119 45.9257,20.3039 45.9177,20.2819 C45.9107,20.2589 45.7987,20.2509 45.7987,20.2509 C45.7987,20.2509 45.7387,20.2059 45.7317,20.1679 Z" id="Fill-79" fill="#FFFFFF"></path>
        <polygon id="Fill-80" fill="#FFFFFF" points="48.2692 18.5447 48.2102 18.5927 48.1722 18.5537 48.1402 18.5857 48.1922 18.6387 48.2072 18.6537 48.2222 18.6407 48.2972 18.5797"></polygon>
        <polygon id="Fill-81" fill="#FFFFFF" points="47.8578 18.4068 47.8098 18.3768 47.7868 18.4148 47.8458 18.4528 47.8578 18.4608 47.8698 18.4528 47.9518 18.3998 47.9278 18.3618"></polygon>
        <polygon id="Fill-82" fill="#FFFFFF" points="47.6173 19.9646 47.6063 19.9636 47.5323 19.9556 47.5273 20.0006 47.5913 20.0076 47.6373 20.0816 47.6753 20.0566 47.6233 19.9736"></polygon>
        <path d="M45.1496,22.0759 L45.1576,22.1589 L45.2686,22.1589 C45.3136,22.1589 45.2316,22.1059 45.2316,22.1059 C45.2316,22.1059 45.1426,22.1139 45.1496,22.0759 Z" id="Fill-83" fill="#FFFFFF"></path>
        <polygon id="Fill-84" fill="#FFFFFF" points="45.2918 22.0783 45.3208 22.0433 45.3648 22.0813 45.3368 22.1163"></polygon>
        <polygon id="Fill-85" fill="#FFFFFF" points="43.9324 20.6616 43.9644 20.6296 44.0084 20.6746 43.9774 20.7066"></polygon>
        <polygon id="Fill-86" fill="#FFFFFF" points="46.0997 30.4078 46.0247 30.3698 46.0047 30.4108 46.0517 30.4338 46.0367 30.4498 46.0687 30.4818 46.1057 30.4438 46.1277 30.4218"></polygon>
        <polygon id="Fill-87" fill="#FFFFFF" points="45.5219 29.8625 45.4939 29.8275 45.4489 29.8655 45.4259 29.8845 45.4499 29.9015 45.5019 29.9395 45.5279 29.9025 45.4989 29.8815"></polygon>
        <path d="M51.0701,28.426 C51.0601,28.387 51.0171,28.372 51.0121,28.37 L50.9971,28.413 C51.0011,28.414 51.0061,28.417 51.0111,28.42 L51.0201,28.46 C51.0171,28.465 51.0131,28.469 51.0111,28.473 L51.0431,28.503 C51.0671,28.477 51.0761,28.451 51.0701,28.426 Z" id="Fill-88" fill="#FFFFFF"></path>
        <polygon id="Fill-89" fill="#FFFFFF" points="51.1389 28.283 51.0659 28.278 51.0719 28.209 51.1449 28.221"></polygon>
        <path d="M52.8682,27.6926 C52.9002,27.6726 52.9412,27.6356 52.9352,27.7206 C52.9302,27.8066 52.8962,27.7776 52.8682,27.8066 C52.8402,27.8346 52.8232,27.7206 52.8682,27.6926" id="Fill-90" fill="#FFFFFF"></path>
        <path d="M53.2479,27.3712 C53.2469,27.3692 53.2469,27.3642 53.2469,27.3602 C53.2459,27.3482 53.2439,27.3312 53.2349,27.3132 L53.1949,27.3332 C53.1999,27.3432 53.2009,27.3542 53.2019,27.3642 C53.2029,27.3782 53.2049,27.3932 53.2169,27.4032 C53.2249,27.4092 53.2349,27.4102 53.2479,27.4082 L53.2389,27.3642 C53.2419,27.3652 53.2469,27.3682 53.2479,27.3712 Z" id="Fill-91" fill="#FFFFFF"></path>
        <path d="M53.1483,27.4085 C53.1593,27.4545 53.1763,27.4995 53.1773,27.5015 L53.2193,27.4855 C53.2183,27.4855 53.2023,27.4405 53.1913,27.3975 L53.1483,27.4085 Z" id="Fill-92" fill="#FFFFFF"></path>
        <path d="M52.9853,27.5871 L52.9403,27.5831 C52.9373,27.6181 52.9453,27.6621 52.9813,27.6701 L52.9893,27.6251 C52.9903,27.6251 52.9903,27.6251 52.9903,27.6251 C52.9873,27.6221 52.9833,27.6041 52.9853,27.5871 Z" id="Fill-93" fill="#FFFFFF"></path>
        <path d="M52.7892,26.6836 C52.7872,26.6686 52.7782,26.6576 52.7652,26.6516 C52.7312,26.6376 52.6762,26.6616 52.6482,26.6796 L52.6732,26.7176 C52.7012,26.6986 52.7392,26.6896 52.7472,26.6936 C52.7462,26.6936 52.7452,26.6916 52.7452,26.6906 L52.7892,26.6836 Z" id="Fill-94" fill="#FFFFFF"></path>
        <path d="M50.7227,24.2644 C50.6927,24.2944 50.6257,24.3094 50.6257,24.3094 L50.6037,24.3934 L50.5657,24.4234 C50.5657,24.4234 50.5737,24.4464 50.5657,24.4994 C50.5587,24.5524 50.4917,24.5824 50.4917,24.5824 L50.4617,24.6204 C50.4617,24.6204 50.2817,24.6304 50.2597,24.6204 C50.1927,24.5904 50.2377,24.4994 50.2827,24.5064 C50.3277,24.5144 50.2747,24.3784 50.2747,24.3784 L50.3347,24.3704 C50.3347,24.3704 50.3417,24.2344 50.3647,24.2344 C50.3867,24.2344 50.3577,24.1884 50.3277,24.1664 C50.2977,24.1434 50.2597,24.0674 50.2297,24.0754 C50.2007,24.0824 50.0807,24.0754 50.0807,24.0754 L50.0587,24.1204 L49.9767,24.1354 C49.9767,24.1354 49.9837,24.1944 49.9697,24.2114 C49.9247,24.2644 49.7527,24.3784 49.8277,24.1884 L49.8497,24.1434 L49.8497,24.0754 L49.7157,24.0674 C49.7157,24.0674 49.6487,24.0444 49.6487,24.0144 C49.6487,23.9844 49.6407,23.9464 49.6407,23.9464 L49.4837,23.7724 L49.2977,23.7494 L49.2827,23.7114 L49.1707,23.6964 C49.0367,23.6284 48.9167,23.6894 48.9397,23.8024 C48.9617,23.9164 48.9987,23.9614 48.9247,23.9614 C48.8497,23.9614 48.8347,23.9014 48.8347,23.9014 C48.8347,23.9014 48.7757,23.8784 48.7757,23.9084 C48.7757,23.9394 48.7527,23.9994 48.7757,24.0294 C48.7977,24.0604 48.7457,24.1054 48.7227,24.0824 C48.7007,24.0604 48.6407,23.9924 48.6557,23.9694 C48.6707,23.9464 48.5517,23.8024 48.6707,23.7804 C48.7907,23.7574 48.6637,23.6894 48.7087,23.6744 L48.7677,23.6434 L48.8277,23.6434 L48.8647,23.6134 L48.7677,23.5984 L48.7087,23.5904 L48.5967,23.5834 C48.4847,23.6584 48.4617,23.7494 48.4617,23.7494 C48.4027,23.8634 48.2607,23.7044 48.3127,23.6434 C48.3647,23.5834 48.1487,23.6364 48.1117,23.6664 C48.0737,23.6964 47.9617,23.6814 47.9617,23.6814 C47.9397,23.7494 47.8357,23.6744 47.8647,23.6284 C47.8947,23.5834 47.8947,23.5524 47.8947,23.5524 L47.8577,23.5454 L47.8127,23.6284 C47.7087,23.6284 47.6787,23.6894 47.7007,23.7274 C47.7237,23.7644 47.6707,23.7194 47.6557,23.7724 C47.6417,23.8254 47.6637,23.8254 47.7087,23.8484 C47.7537,23.8704 47.6857,23.8704 47.7157,23.9084 C47.7457,23.9464 47.8357,23.9084 47.7827,23.9614 C47.7307,24.0144 47.6267,23.9924 47.6267,23.9924 C47.6187,24.0604 47.4767,24.0454 47.4627,24.0224 C47.4477,23.9994 47.3357,23.8634 47.3357,23.8634 L47.1937,23.8554 C47.1787,23.7494 47.2607,23.8024 47.2907,23.7194 C47.3207,23.6364 47.3357,23.4994 47.3357,23.4994 C47.3357,23.4994 47.2157,23.4924 47.2087,23.5304 C47.2017,23.5684 47.1267,23.5904 47.1267,23.5904 C47.1267,23.5904 47.0667,23.6134 47.0897,23.6434 C47.1117,23.6744 47.0447,23.6894 47.0447,23.6894 C47.0447,23.6894 47.0557,23.7384 47.0367,23.7574 C46.9777,23.8174 46.8277,23.7644 46.8057,23.7424 L46.7157,23.7044 L46.6267,23.6434 L46.5217,23.6894 L46.4927,23.7194 L46.3807,23.7194 L46.3727,23.8104 L46.5747,23.8324 L46.5897,24.0204 L46.5077,23.9914 L46.4547,23.9914 L46.4327,23.9464 L46.3877,23.9384 L46.3877,24.1054 L46.4327,24.1434 L46.4697,24.1814 L46.5447,24.1884 L46.5597,24.2794 L46.7457,24.2874 L46.7687,24.3254 L46.8807,24.3324 L47.0967,24.5524 L47.0817,24.6204 L47.0447,24.6434 C47.0597,24.6964 46.9477,24.6654 46.9477,24.6654 L46.9477,24.7114 L46.9997,24.7184 L47.0517,24.7494 L47.1267,24.6204 C47.2087,24.5674 47.2457,24.6434 47.2537,24.6884 C47.2607,24.7334 47.2157,24.7264 47.2157,24.7264 L47.2157,24.8324 L47.2607,24.8474 C47.3357,24.9384 47.2307,24.9914 47.2307,24.9914 L47.2087,25.0674 C47.1857,25.1354 47.1037,25.1204 47.1037,25.1204 L47.0747,25.1654 L46.9847,25.1884 L47.1617,25.2104 C47.1787,25.1504 47.2237,25.1354 47.2457,25.1654 C47.2687,25.1954 47.2687,25.2484 47.2687,25.2484 L47.3127,25.2564 L47.3057,25.3394 L47.3507,25.3544 L47.3507,25.5974 L47.4027,25.6574 C47.4917,25.6194 47.4917,25.6804 47.4477,25.7104 C47.4027,25.7404 47.4327,25.8774 47.4327,25.8774 L47.3947,25.9154 L47.3947,25.9754 L47.3507,26.0064 L47.3507,26.0894 C47.2757,26.0514 47.1857,26.0664 47.1637,26.0894 C47.0967,26.0434 46.9547,26.0594 46.9547,26.0964 C46.9997,26.1574 46.9027,26.1724 46.9027,26.1724 L46.8507,26.2334 C46.8877,26.3084 46.8127,26.3164 46.8127,26.3164 L46.8127,26.4604 L46.7237,26.5434 L46.7307,26.7404 C46.7307,26.7934 46.8427,26.8014 46.8657,26.7704 C46.8877,26.7404 46.9777,26.8314 46.9777,26.8314 L47.0447,26.8314 L47.0597,26.6954 L47.0147,26.6724 L47.0147,26.4524 L47.0887,26.3694 C47.1787,26.3394 47.1487,26.5664 47.1487,26.5894 C47.1567,26.6724 47.1937,26.6644 47.2307,26.6494 C47.3057,26.6194 47.2457,26.7334 47.1857,26.7254 C47.1267,26.7174 47.1637,26.8014 47.1637,26.8014 L47.2007,26.8164 L47.1337,26.8694 L47.0747,26.9374 L46.9997,26.9144 L46.9097,26.9074 L46.8807,26.8544 L46.8277,26.8464 L46.8207,26.9524 L46.7837,26.9974 L46.6937,27.0884 C46.8127,27.0884 46.6787,27.1724 46.6487,27.1724 C46.7157,27.1944 46.6417,27.2634 46.4697,27.2104 L46.4697,27.2634 L46.4097,27.2704 L46.4627,27.3314 L46.5217,27.3384 L46.4997,27.4674 C46.4997,27.5654 46.2537,27.4974 46.2307,27.4754 L46.2237,27.6114 L46.1787,27.6184 L46.1867,27.7094 L46.1787,27.8384 L46.2607,27.8234 L46.2607,27.8764 L46.4627,27.8834 L46.7537,27.5734 L46.9247,27.5354 C46.9397,27.4594 47.0147,27.5504 47.0147,27.5504 C47.0887,27.5434 47.1037,27.5964 47.1037,27.5964 L47.2007,27.6114 C47.2827,27.6344 47.2337,27.6424 47.2387,27.6724 C47.2457,27.7174 47.2827,27.7024 47.2827,27.7024 L47.2977,27.6034 L47.3427,27.6114 L47.2977,27.5584 L47.2157,27.5204 L47.1267,27.4824 C47.0667,27.3994 47.1417,27.4144 47.2007,27.4224 L47.2977,27.4224 C47.2977,27.4224 47.4097,27.5734 47.4097,27.6114 C47.4097,27.6494 47.4627,27.6564 47.4627,27.6564 L47.5297,27.6494 L47.5517,27.7024 L47.6187,27.7024 L47.6417,27.7474 L47.7757,27.7474 L47.7827,27.6794 L47.6557,27.6564 L47.6487,27.5814 L47.5597,27.5584 C47.5297,27.4294 47.5817,27.3914 47.6187,27.4524 L47.6637,27.4594 L47.6487,27.3464 L47.7007,27.3314 L47.6857,27.1724 L47.6417,27.1564 L47.6417,27.1034 L47.8277,27.1114 C47.8127,27.0134 47.8357,26.9674 47.8357,26.9674 L47.8877,26.9674 L47.8947,27.0054 L48.1227,27.0274 L48.2847,26.8414 C48.2767,26.8274 48.3007,26.8194 48.2827,26.8014 C48.2607,26.7784 48.2307,26.8014 48.1937,26.7784 C48.1557,26.7554 48.1937,26.6264 48.1857,26.5964 C48.1787,26.5664 48.3127,26.5204 48.2907,26.5894 C48.2677,26.6574 48.2907,26.6874 48.2907,26.6874 C48.3877,26.5964 48.4697,26.6954 48.4617,26.7174 C48.4547,26.7404 48.5137,26.7634 48.5517,26.7404 C48.5887,26.7174 48.6337,26.8084 48.6187,26.8544 C48.6037,26.8994 48.4697,26.8914 48.4617,26.8464 C48.4547,26.8014 48.4317,26.8164 48.4177,26.8384 C48.4027,26.8614 48.3357,26.8764 48.2977,26.8544 C48.2907,26.8494 48.2867,26.8454 48.2847,26.8414 L48.1227,27.0274 L48.1337,27.0284 C48.2227,27.0814 48.1787,27.1494 48.1487,27.1644 C48.1187,27.1794 48.0667,27.1794 48.0667,27.1794 L48.0517,27.2104 L47.8577,27.2254 L47.8427,27.3004 C47.7457,27.2854 47.7087,27.3914 47.7307,27.4444 C47.7537,27.4974 47.7307,27.5434 47.7307,27.5434 L47.8127,27.5814 L47.9177,27.5504 C47.9327,27.4744 47.9997,27.4594 48.0587,27.4144 C48.1187,27.3694 48.2157,27.4974 48.1857,27.5584 C48.1557,27.6184 48.1557,27.6414 48.1557,27.6414 L48.1637,27.7094 L48.0887,27.7394 L48.0287,27.7704 L48.0217,27.8084 L47.8207,27.8084 L47.7827,27.8454 L47.6857,27.8534 L47.6557,27.8994 L47.5887,27.9064 C47.5887,27.9064 47.4767,27.9594 47.5217,28.0204 C47.5667,28.0804 47.3357,28.0734 47.2827,27.9894 C47.2677,28.0654 47.1857,27.9974 47.1857,27.9974 L47.1037,27.9744 L47.0967,27.8614 C47.0817,27.7854 46.9397,27.7854 46.9477,27.8384 C46.9547,27.8914 46.6787,27.8614 46.6787,27.8614 L46.5887,27.9044 L46.5067,27.9524 L46.4997,27.9894 L46.3647,28.0054 L46.3057,28.0354 L46.2837,27.9894 L46.2237,27.9894 L46.1637,28.0734 C46.0067,28.0804 45.8577,28.1714 45.8727,28.2094 C45.8877,28.2474 45.8137,28.2854 45.8137,28.2854 L45.7457,28.3074 L45.7017,28.3764 L45.6117,28.4064 L45.5967,28.5654 L45.5517,28.5954 L45.5517,28.6644 L45.4997,28.6794 L45.4997,28.7164 L45.4257,28.7244 L45.4697,28.8384 L45.5297,28.8684 C45.6337,28.8834 45.5897,29.0124 45.5897,29.0124 L45.6487,29.0194 L45.6787,29.1034 L45.7387,29.2244 C45.7607,29.3154 45.8277,29.2924 45.8577,29.2844 C45.8877,29.2774 45.9177,29.3754 45.9177,29.3754 L46.2157,29.3834 C46.2157,29.3834 46.2007,29.4134 46.2537,29.4284 C46.3057,29.4434 46.6487,29.4594 46.6637,29.4364 C46.6487,29.3684 46.8497,29.3534 46.9327,29.4134 C47.0147,29.4744 47.1267,29.4364 47.1267,29.4364 L47.2387,29.5724 L47.3127,29.7394 L47.4397,29.7774 L47.5287,29.7994 L47.5587,29.9284 L47.6257,29.9364 L47.6487,30.0194 C47.7307,30.0804 47.6257,30.2084 47.6257,30.2084 L47.6257,30.3754 L47.6857,30.4054 L47.6787,30.4664 L47.7757,30.5644 L47.8877,30.5724 L48.1707,30.8754 L48.3947,30.9434 L48.4317,31.0644 L48.4917,31.0564 L48.5367,31.0194 L48.7157,31.0114 L48.8047,30.9284 L48.9017,30.9134 L49.7307,30.2084 L49.6557,30.1634 L49.6557,29.9964 C49.7897,29.8984 49.7977,29.7244 49.6707,29.7094 C49.5747,29.6974 49.6187,29.5954 49.7077,29.5804 L49.7597,29.5574 L49.7597,29.4894 L49.9317,29.3304 L49.9317,29.2094 L49.5587,28.8984 C49.3947,28.8384 49.5587,28.4744 49.6707,28.4824 C49.7827,28.4894 49.6627,27.9214 49.6627,27.9214 L49.6037,27.8914 L49.6187,27.7094 L49.5367,27.7094 L49.4017,27.8844 L49.3647,28.0054 C49.3497,28.1644 48.8867,28.1334 48.8647,28.1114 C48.8427,28.0884 48.6857,28.0204 48.6857,28.0204 C48.6857,28.0204 48.5667,27.9214 48.5437,27.9524 C48.5217,27.9824 48.4167,27.9144 48.4167,27.9374 C48.4167,27.9594 48.3197,27.8844 48.3197,27.8844 L48.1707,27.8314 L48.2827,27.8084 L48.2607,27.7174 L48.4547,27.8154 C48.4767,27.8464 48.5737,27.8384 48.5737,27.8384 L48.6037,27.8764 C48.6037,27.8764 48.6637,27.8684 48.7007,27.9144 C48.7377,27.9594 48.9317,27.9224 48.9317,27.9224 L48.9837,27.9674 L49.0657,27.9974 L49.2977,28.0054 L49.3047,27.8614 L49.3497,27.8164 L49.3427,27.7254 L49.3947,27.6794 L49.3947,27.6044 L49.4397,27.5884 L49.4467,27.4224 L49.4837,27.4144 L49.4837,27.0514 L49.3717,26.9454 C49.3647,26.9834 49.2457,26.9834 49.2457,26.9834 C49.2457,26.9834 49.2157,27.0364 49.1927,27.0364 C49.1707,27.0364 49.2227,27.1044 49.2077,27.1494 C49.1927,27.1954 49.1337,27.1954 49.1337,27.1954 L49.0217,27.2254 L48.9917,27.2634 L48.8717,27.2634 L48.8577,27.1644 L48.9917,27.1264 L49.0657,27.0894 L49.1037,27.0134 C49.1107,26.9374 49.2007,26.9454 49.2007,26.9454 C49.2007,26.9454 49.3717,26.8014 49.3797,26.7334 C49.3867,26.6654 49.4467,26.4754 49.5507,26.4754 L49.7447,26.4754 C49.8197,26.4454 49.7977,26.3474 49.7977,26.3474 L49.8947,26.3314 L49.9097,26.3844 C49.9097,26.3844 50.0437,26.4004 50.0587,26.3774 C50.0737,26.3544 50.1037,26.3014 50.1407,26.3244 C50.1777,26.3474 50.2977,26.2714 50.2977,26.2714 C50.3047,26.2184 50.4917,26.2414 50.4917,26.2414 L50.5137,26.1724 C50.5137,26.1724 50.3867,25.9984 50.3647,25.9984 C50.3417,25.9984 50.2227,25.8924 50.2077,25.9304 C50.0887,25.9004 50.0957,25.7334 50.0957,25.7334 L50.0507,25.6274 C50.0507,25.5674 49.9397,25.4384 49.9167,25.4534 C49.8047,25.3704 49.8867,25.2714 49.9167,25.2644 C49.9467,25.2564 50.0217,25.1504 50.0217,25.1504 L50.0587,25.0444 L50.1857,25.0064 L50.2007,24.9084 L50.1337,24.9004 C50.1337,24.9004 50.2077,24.7644 50.2447,24.7644 C50.2827,24.7644 50.5287,24.7644 50.5507,24.7494 C50.5737,24.7344 50.6177,24.6134 50.6177,24.5904 C50.6177,24.5674 50.6777,24.5604 50.6997,24.5524 C50.7227,24.5444 50.7747,24.4844 50.7897,24.4544 C50.8047,24.4234 50.7527,24.2344 50.7227,24.2644 Z" id="Fill-95" fill="#FFFFFF"></path>
        <path d="M46.5894,26.9942 C46.6004,26.9832 46.6114,27.0282 46.6344,27.0222 C46.6564,27.0172 46.6674,27.0622 46.6454,27.0622 C46.6234,27.0622 46.6234,27.0912 46.6234,27.1022 C46.6234,27.1132 46.6234,27.1422 46.6064,27.1592 C46.5894,27.1762 46.5724,27.1642 46.5504,27.1532 C46.5274,27.1422 46.5164,27.1422 46.4884,27.1422 C46.4604,27.1422 46.4834,27.1872 46.4834,27.1872 C46.4834,27.1872 46.3654,27.1822 46.3874,27.1642 C46.4104,27.1482 46.4324,27.1422 46.4164,27.1302 C46.3994,27.1192 46.4164,27.1082 46.4164,27.0852 C46.4164,27.0622 46.4714,27.0742 46.4554,27.0572 C46.4384,27.0392 46.4554,26.9742 46.4834,27.0112 L46.4994,26.9712 C46.4834,26.9542 46.4944,26.9482 46.4604,26.9372 C46.4274,26.9262 46.4554,26.8582 46.4554,26.8582 L46.4604,26.8122 C46.4714,26.7562 46.5834,26.7502 46.5894,26.8012 C46.5944,26.8522 46.5894,26.8862 46.5894,26.8862 L46.6234,26.8972 C46.6234,26.8972 46.6174,26.9322 46.5894,26.9322 C46.5614,26.9322 46.5894,26.9492 46.5724,26.9662 L46.5894,26.9942 Z" id="Fill-96" fill="#FFFFFF"></path>
        <path d="M46.22,27.0512 C46.237,27.0172 46.276,26.8692 46.321,26.9152 C46.365,26.9602 46.393,26.9152 46.393,26.9152 C46.393,26.9152 46.416,26.9372 46.405,26.9832 C46.393,27.0282 46.382,27.0742 46.354,27.0792 C46.326,27.0852 46.304,27.1022 46.27,27.1082 C46.237,27.1142 46.22,27.0512 46.22,27.0512 Z" id="Fill-97" fill="#FFFFFF"></path>
        <path d="M31.7389,26.7427 C31.7389,29.8517 29.2189,32.3717 26.1099,32.3717 C22.9999,32.3717 20.4799,29.8517 20.4799,26.7427 C20.4799,23.6337 22.9999,21.1137 26.1099,21.1137 C29.2189,21.1137 31.7389,23.6337 31.7389,26.7427" id="Fill-98" fill="#FFFFFF"></path>
        <path d="M11.2589,6.751 C11.2589,9.86 8.7389,12.38 5.6299,12.38 C2.5199,12.38 -0.0001,9.86 -0.0001,6.751 C-0.0001,3.642 2.5199,1.122 5.6299,1.122 C8.7389,1.122 11.2589,3.642 11.2589,6.751" id="Fill-99" fill="#FFFFFF"></path>
        <path d="M11.2589,26.7427 C11.2589,29.8517 8.7389,32.3717 5.6299,32.3717 C2.5199,32.3717 -0.0001,29.8517 -0.0001,26.7427 C-0.0001,23.6337 2.5199,21.1137 5.6299,21.1137 C8.7389,21.1137 11.2589,23.6337 11.2589,26.7427" id="Fill-100" fill="#FFFFFF"></path>
        <path d="M11.2589,46.4597 C11.2589,49.5687 8.7389,52.0887 5.6299,52.0887 C2.5199,52.0887 -0.0001,49.5687 -0.0001,46.4597 C-0.0001,43.3507 2.5199,40.8307 5.6299,40.8307 C8.7389,40.8307 11.2589,43.3507 11.2589,46.4597" id="Fill-101" fill="#FFFFFF"></path>
        <path d="M31.7389,46.4597 C31.7389,49.5687 29.2189,52.0887 26.1099,52.0887 C22.9999,52.0887 20.4799,49.5687 20.4799,46.4597 C20.4799,43.3507 22.9999,40.8307 26.1099,40.8307 C29.2189,40.8307 31.7389,43.3507 31.7389,46.4597" id="Fill-102" fill="#FFFFFF"></path>
        <path d="M52.2189,46.4597 C52.2189,49.5687 49.6989,52.0887 46.5899,52.0887 C43.4799,52.0887 40.9599,49.5687 40.9599,46.4597 C40.9599,43.3507 43.4799,40.8307 46.5899,40.8307 C49.6989,40.8307 52.2189,43.3507 52.2189,46.4597" id="Fill-103" fill="#FFFFFF"></path>
        <path d="M52.2189,6.751 C52.2189,9.86 49.6989,12.38 46.5899,12.38 C43.4799,12.38 40.9599,9.86 40.9599,6.751 C40.9599,3.642 43.4799,1.122 46.5899,1.122 C49.6989,1.122 52.2189,3.642 52.2189,6.751" id="Fill-104" fill="#FFFFFF"></path>
        <path d="M31.7389,6.751 C31.7389,9.86 29.2189,12.38 26.1099,12.38 C22.9999,12.38 20.4799,9.86 20.4799,6.751 C20.4799,3.642 22.9999,1.122 26.1099,1.122 C29.2189,1.122 31.7389,3.642 31.7389,6.751" id="Fill-105" fill="#FFFFFF"></path>
    </g>
</svg>